<?xml version="1.0" standalone="no"?>
<!DOCTYPE svg PUBLIC "-//W3C//DTD SVG 20010904//EN"
 "http://www.w3.org/TR/2001/REC-SVG-20010904/DTD/svg10.dtd">
<svg version="1.0" xmlns="http://www.w3.org/2000/svg"
 width="512.000000pt" height="512.000000pt" viewBox="0 0 512.000000 512.000000"
 preserveAspectRatio="xMidYMid meet">

<g transform="translate(0.000000,512.000000) scale(0.100000,-0.100000)"
fill="#000000" stroke="none">
<path d="M0 2560 l0 -2560 2560 0 2560 0 0 2560 0 2560 -2560 0 -2560 0 0
-2560z m2826 2304 c42 -20 66 -53 88 -120 28 -87 80 -111 162 -75 59 26 110
27 152 1 64 -39 91 -125 58 -188 -64 -123 -241 -103 -275 31 -23 95 -78 124
-169 88 -29 -12 -67 -21 -85 -21 -45 0 -98 29 -125 70 -20 29 -23 44 -20 88 5
61 29 99 79 124 43 22 91 23 135 2z m-405 -30 c40 -38 49 -61 55 -153 7 -117
32 -179 103 -254 55 -59 139 -97 263 -118 133 -23 165 -36 226 -93 48 -45 65
-72 115 -187 32 -73 93 -134 148 -149 35 -10 55 -9 108 4 90 22 119 20 157 -9
60 -46 66 -132 12 -185 -58 -58 -132 -49 -194 24 -96 112 -220 116 -359 10
-83 -63 -197 -86 -290 -59 -99 28 -165 83 -210 174 -36 71 -42 146 -20 245 26
115 18 223 -23 302 -46 91 -101 136 -244 198 -45 19 -61 32 -77 65 -38 73 -19
151 48 197 31 22 45 25 94 22 46 -4 63 -10 88 -34z m-421 -186 c107 -54 107
-203 0 -259 -95 -51 -210 20 -210 130 0 61 29 107 83 131 54 25 73 25 127 -2z
m1490 -323 c49 -25 70 -61 70 -122 0 -87 -45 -133 -130 -133 -108 0 -170 99
-123 197 31 65 116 93 183 58z m-1185 -25 c21 -13 50 -44 66 -69 24 -37 29
-56 29 -108 0 -79 -16 -118 -67 -164 -51 -46 -100 -63 -169 -57 -213 18 -264
318 -69 410 55 26 158 20 210 -12z m-534 -39 l39 -39 -2 -98 c-2 -82 2 -107
19 -146 30 -67 94 -132 156 -158 80 -34 97 -54 97 -115 0 -88 -62 -140 -140
-116 -60 18 -80 51 -80 131 0 84 -18 145 -61 205 -38 52 -79 81 -158 110 -69
25 -101 67 -101 132 0 85 49 132 139 133 49 0 57 -3 92 -39z m-89 -441 c37
-37 40 -43 35 -82 -3 -24 -15 -69 -26 -101 -21 -56 -21 -62 -6 -112 10 -35 26
-63 47 -82 85 -76 88 -80 88 -123 0 -58 -42 -100 -100 -100 -33 0 -48 6 -71
29 -34 34 -38 74 -14 141 32 92 6 167 -82 232 -68 50 -90 95 -74 149 16 53 64
89 120 89 37 0 49 -5 83 -40z m836 -109 c54 -27 79 -55 108 -116 43 -90 25
-197 -44 -268 -53 -54 -85 -67 -191 -78 -118 -12 -180 -38 -231 -96 -39 -44
-70 -116 -70 -160 0 -31 -42 -73 -73 -73 -37 0 -77 36 -77 70 0 47 10 59 75
90 76 36 127 92 151 163 16 50 16 72 -2 225 -15 119 55 224 176 263 40 13 133
3 178 -20z m598 -234 c11 -7 38 -31 58 -54 33 -37 44 -43 77 -43 28 0 47 8 71
29 72 62 126 65 173 9 23 -27 26 -39 22 -76 -6 -57 -32 -83 -90 -89 -43 -5
-48 -3 -95 41 -27 25 -62 48 -78 51 -63 12 -134 -70 -134 -155 0 -35 7 -48 45
-89 55 -59 62 -106 19 -140 -34 -27 -64 -27 -98 0 -31 24 -34 62 -10 126 23
60 8 112 -44 150 -70 51 -91 75 -97 112 -13 78 39 141 114 141 25 -1 55 -6 67
-13z m-477 -315 c49 -24 70 -59 78 -122 6 -55 37 -127 70 -165 44 -50 133
-113 176 -124 36 -9 48 -17 53 -35 9 -37 1 -59 -24 -72 -40 -20 -68 -6 -87 42
-21 56 -118 154 -187 188 -36 18 -68 26 -105 26 -63 0 -109 17 -143 55 -33 35
-36 125 -5 167 41 56 112 72 174 40z m-413 -447 c32 -49 -15 -97 -68 -71 -29
14 -35 52 -12 77 24 27 60 24 80 -6z m738 -277 c21 -30 20 -54 -4 -78 -19 -19
-33 -20 -402 -20 -341 0 -383 2 -400 17 -22 20 -23 61 -1 85 15 17 41 18 404
18 l388 0 15 -22z m-11 -140 c27 -22 31 -61 7 -91 l-21 -27 -379 0 c-377 0
-379 0 -400 22 -25 28 -26 62 0 88 19 19 33 20 398 20 287 0 382 -3 395 -12z
m9 -167 c22 -28 18 -68 -9 -88 -13 -10 -109 -13 -399 -13 l-383 0 -15 22 c-23
33 -19 64 11 88 26 20 33 21 401 18 l374 -3 20 -24z m-92 -142 c0 -27 -59 -91
-104 -114 -47 -24 -59 -25 -208 -25 -139 0 -164 3 -198 20 -46 24 -84 60 -105
100 l-16 30 316 0 c221 0 315 -3 315 -11z m-470 -1024 l0 -325 -30 0 -30 0 0
325 0 325 30 0 30 0 0 -325z m190 0 l0 -325 -29 0 c-37 0 -37 -7 -33 358 l3
292 29 0 30 0 0 -325z m-1560 255 c59 -42 63 -138 8 -190 -26 -25 -39 -30 -80
-30 -61 0 -102 26 -118 76 -41 122 86 218 190 144z m283 23 c3 -5 -60 -116
-140 -248 -198 -330 -188 -315 -223 -315 -17 0 -30 4 -30 9 0 5 75 134 166
285 155 257 168 276 194 276 16 0 31 -3 33 -7z m808 -50 c-3 -60 4 -64 66 -38
39 16 49 12 55 -20 2 -16 -6 -23 -44 -34 -27 -8 -48 -19 -48 -24 0 -5 14 -27
32 -49 30 -39 31 -41 13 -54 -27 -20 -30 -19 -66 31 -18 25 -34 45 -35 45 -2
0 -15 -20 -30 -45 -27 -47 -43 -55 -64 -30 -11 13 -8 23 20 61 17 25 31 46 29
48 -2 2 -25 9 -51 16 -48 13 -58 28 -40 58 7 10 17 9 51 -3 24 -8 47 -15 52
-15 5 0 9 25 9 56 0 54 1 55 27 52 26 -3 27 -5 24 -55z m677 -150 l2 -203 -35
0 -35 0 0 206 0 205 33 -3 32 -3 3 -202z m1512 196 c0 -10 -80 -228 -183 -501
-20 -54 -24 -58 -54 -58 -18 0 -33 2 -33 4 0 5 156 429 175 476 8 19 19 47 25
63 7 21 16 27 40 27 16 0 30 -5 30 -11z m-3590 -132 c0 -32 -3 -35 -62 -59
-223 -92 -268 -111 -264 -115 3 -3 76 -35 163 -73 153 -65 158 -69 161 -99 2
-17 0 -31 -5 -31 -4 0 -94 39 -200 86 -121 55 -193 92 -196 103 -7 33 6 47 66
73 34 15 120 54 192 87 72 33 133 60 138 60 4 1 7 -14 7 -32z m3874 -52 c103
-47 191 -85 197 -85 5 0 9 -15 9 -33 0 -32 -1 -33 -142 -96 -79 -35 -165 -75
-192 -88 -64 -30 -68 -29 -64 9 3 32 6 34 161 99 86 36 159 68 161 70 3 2 -69
36 -160 74 l-164 70 0 32 c0 18 2 33 4 33 2 0 87 -38 190 -85z m-2884 -10 l0
-85 85 0 85 0 0 -30 0 -30 -85 0 -85 0 0 -85 0 -85 -30 0 -30 0 0 85 0 85 -85
0 -85 0 0 30 0 30 85 0 85 0 0 85 0 85 30 0 30 0 0 -85z m1810 -50 l0 -25
-200 0 -200 0 0 25 0 25 200 0 200 0 0 -25z m460 0 l0 -25 -200 0 -200 0 0 25
0 25 200 0 200 0 0 -25z m-2630 -84 c77 -55 61 -181 -27 -217 -69 -30 -141 7
-162 81 -32 116 92 205 189 136z m2170 -41 l0 -30 -200 0 -200 0 0 30 0 30
200 0 200 0 0 -30z m460 0 l0 -30 -200 0 -200 0 0 30 0 30 200 0 200 0 0 -30z
m-1185 -106 c19 -20 16 -63 -6 -77 -9 -5 -28 -7 -42 -3 -22 5 -27 12 -27 39 0
54 40 75 75 41z"/>
<path d="M909 1174 c-21 -25 -17 -93 6 -110 64 -47 137 36 89 104 -18 27 -75
30 -95 6z"/>
<path d="M1238 863 c-23 -28 -28 -51 -17 -80 12 -33 26 -43 60 -43 52 0 78 69
43 118 -19 27 -65 29 -86 5z"/>
</g>
</svg>
