<?xml version="1.0" encoding="UTF-8" standalone="no" ?>
<!DOCTYPE svg PUBLIC "-//W3C//DTD SVG 1.1//EN" "http://www.w3.org/Graphics/SVG/1.1/DTD/svg11.dtd">
<svg xmlns="http://www.w3.org/2000/svg" xmlns:xlink="http://www.w3.org/1999/xlink" version="1.1" width="1280" height="1024" viewBox="0 0 1280 1024" xml:space="preserve">
<desc>Created with Fabric.js 5.3.0</desc>
<defs>
</defs>
<g transform="matrix(1 0 0 1 640 512)" id="background-logo"  >
<rect style="stroke: none; stroke-width: 0; stroke-dasharray: none; stroke-linecap: butt; stroke-dashoffset: 0; stroke-linejoin: miter; stroke-miterlimit: 4; fill: rgb(255,255,255); fill-opacity: 0; fill-rule: nonzero; opacity: 1;"  paint-order="stroke"  x="-640" y="-512" rx="0" ry="0" width="1280" height="1024" />
</g>
<g transform="matrix(1.2770473537786886 0 0 1.2770473537786886 260.65703577403167 511.29294814052247)" id="logo-logo"  >
<g style=""  paint-order="stroke"   >
		<g transform="matrix(0.8009450098341586 0 0 -0.8009450098341586 -98.48203585768158 -51.15996203065197)"  >
<path style="stroke: none; stroke-width: 1; stroke-dasharray: none; stroke-linecap: butt; stroke-dashoffset: 0; stroke-linejoin: miter; stroke-miterlimit: 4; fill: rgb(29,123,107); fill-rule: nonzero; opacity: 1;"  paint-order="stroke"  transform=" translate(0.0024999999999995026, -12.384)" d="M 0 0 C 6.834 0.001 12.377 5.545 12.377 12.382 C 12.377 19.224 6.834 24.767 0 24.768 C -6.84 24.767 -12.382 19.224 -12.382 12.382 C -12.382 5.545 -6.84 0.001 0 0" stroke-linecap="round" />
</g>
		<g transform="matrix(0.8009450098341586 0 0 -0.8009450098341586 -65.01823296880644 -51.15996203065197)"  >
<path style="stroke: none; stroke-width: 1; stroke-dasharray: none; stroke-linecap: butt; stroke-dashoffset: 0; stroke-linejoin: miter; stroke-miterlimit: 4; fill: rgb(29,123,107); fill-rule: nonzero; opacity: 1;"  paint-order="stroke"  transform=" translate(-15.085499999999998, -12.384)" d="M 0 0 L 30.173 0 C 34.658 0 38.297 5.544 38.297 12.382 C 38.297 19.224 34.657999999999994 24.768 30.172999999999995 24.768 L 0 24.768 C -4.486 24.768 -8.126 19.224 -8.126 12.382000000000001 C -8.126 5.544 -4.486 0 0 0" stroke-linecap="round" />
</g>
		<g transform="matrix(0.8009450098341586 0 0 -0.8009450098341586 -106.85952018804193 3.012113898483335)"  >
<path style="stroke: none; stroke-width: 1; stroke-dasharray: none; stroke-linecap: butt; stroke-dashoffset: 0; stroke-linejoin: miter; stroke-miterlimit: 4; fill: rgb(29,123,107); fill-rule: nonzero; opacity: 1;"  paint-order="stroke"  transform=" translate(0.0030000000000001137, 12.3845)" d="M 0 0 C -6.84 -0.001 -12.382 -5.545 -12.382 -12.386 C -12.382 -19.224 -6.84 -24.768 0 -24.769 C 6.834 -24.767999999999997 12.376 -19.223999999999997 12.376 -12.386 C 12.376 -5.545 6.834 -0.001 0 0" stroke-linecap="round" />
</g>
		<g transform="matrix(0.8009450098341586 0 0 -0.8009450098341586 -73.39531682666194 3.0118736149803738)"  >
<path style="stroke: none; stroke-width: 1; stroke-dasharray: none; stroke-linecap: butt; stroke-dashoffset: 0; stroke-linejoin: miter; stroke-miterlimit: 4; fill: rgb(29,123,107); fill-rule: nonzero; opacity: 1;"  paint-order="stroke"  transform=" translate(-23.2115, -0.0015000000000000568)" d="M 0 0 C 0 -6.838 3.64 -12.383 8.126 -12.383 L 38.299 -12.383 C 42.784 -12.383 46.423 -6.837999999999999 46.423 0 C 46.423 6.841 42.784 12.386 38.299 12.386 L 8.126 12.386 C 3.64 12.386 0 6.841 0 0" stroke-linecap="round" />
</g>
		<g transform="matrix(0.8009450098341586 0 0 -0.8009450098341586 -86.19561950132652 53.83295581197149)"  >
<path style="stroke: none; stroke-width: 1; stroke-dasharray: none; stroke-linecap: butt; stroke-dashoffset: 0; stroke-linejoin: miter; stroke-miterlimit: 4; fill: rgb(29,123,107); fill-rule: nonzero; opacity: 1;"  paint-order="stroke"  transform=" translate(0.0024999999999995026, 12.3835)" d="M 0 0 C -6.84 0 -12.382 -5.545 -12.382 -12.385 C -12.382 -19.223 -6.84 -24.767 0 -24.767 C 6.834 -24.767 12.377 -19.223 12.377 -12.385 C 12.377 -5.545 6.834 0 0 0" stroke-linecap="round" />
</g>
		<g transform="matrix(0.8009450098341586 0 0 -0.8009450098341586 -52.731576328948506 53.83295581197149)"  >
<path style="stroke: none; stroke-width: 1; stroke-dasharray: none; stroke-linecap: butt; stroke-dashoffset: 0; stroke-linejoin: miter; stroke-miterlimit: 4; fill: rgb(29,123,107); fill-rule: nonzero; opacity: 1;"  paint-order="stroke"  transform=" translate(15.087499999999999, 12.3835)" d="M 0 0 L -30.173 0 C -34.659 0 -38.299 -5.545 -38.299 -12.385 C -38.299 -19.225 -34.659 -24.767 -30.173000000000002 -24.767 L 0 -24.767 C 4.485 -24.767 8.124 -19.225 8.124 -12.385 C 8.124 -5.545 4.485 0 0 0" stroke-linecap="round" />
</g>
		<g transform="matrix(0.8009450098341586 0 0 -0.8009450098341586 32.07648603734128 0)"  >
<path style="stroke: none; stroke-width: 1; stroke-dasharray: none; stroke-linecap: butt; stroke-dashoffset: 0; stroke-linejoin: miter; stroke-miterlimit: 4; fill: rgb(47,185,163); fill-rule: nonzero; opacity: 1;"  paint-order="stroke"  transform=" translate(78.68250000000003, -17.258000000000024)" d="M 0 0 C -7.462 0 -13.51 6.049 -13.51 13.51 C -13.51 20.971 -7.462 27.02 0 27.02 C 7.462 27.02 13.51 20.971 13.51 13.51 C 13.51 6.049 7.462 0 0 0 M -26.147 -61.533 C -33.608999999999995 -61.533 -39.657 -55.484 -39.657 -48.023 C -39.657 -40.56400000000001 -33.608999999999995 -34.515 -26.147 -34.515 C -18.686 -34.515 -12.637999999999998 -40.564 -12.637999999999998 -48.022999999999996 C -12.637999999999998 -55.483999999999995 -18.686 -61.532999999999994 -26.147 -61.532999999999994 M -92.801 0.643 C -98.399 0.643 -102.926 6.42 -102.926 13.558 C -102.926 20.667 -98.399 26.444 -92.801 26.444 L -36.058 26.444 C -33.269 26.444 -30.727 24.997999999999998 -28.892 22.676 C -27.04 20.325 -25.91 17.104999999999997 -25.91 13.557999999999998 C -25.91 6.419999999999998 -30.459 0.6429999999999989 -36.058 0.6429999999999989 z M -52.992000000000004 90.471 C -45.531000000000006 90.471 -39.482000000000006 84.422 -39.482000000000006 76.961 C -39.482000000000006 69.5 -45.531000000000006 63.452 -52.992000000000004 63.452 C -60.45400000000001 63.452 -66.50200000000001 69.5 -66.50200000000001 76.961 C -66.50200000000001 84.422 -60.45400000000001 90.471 -52.99200000000001 90.471 M -80.537 131.39600000000002 C -82.772 131.525 -85.02000000000001 131.61 -87.287 131.61 C -89.554 131.61 -91.801 131.525 -94.036 131.39600000000002 L -100.349 131.39600000000002 C -113.863 131.39600000000002 -126.46000000000001 127.28500000000001 -137.094 120.21500000000002 C -141.25 117.45200000000001 -145.11599999999999 114.25000000000001 -148.607 110.64400000000002 C -156 102.98600000000002 -150.61599999999999 89.73700000000002 -140.24 89.73700000000002 L -92.971 89.73700000000002 C -90.166 89.73700000000002 -87.644 88.29100000000003 -85.809 85.94700000000002 C -83.975 83.62500000000001 -82.846 80.39100000000002 -82.846 76.82900000000002 C -82.846 69.70600000000002 -87.37700000000001 63.93600000000002 -92.971 63.93600000000002 L -168.935 63.93600000000002 C -168.931 63.96900000000002 -168.927 64.00000000000001 -168.937 63.93600000000002 C -172.96800000000002 63.47200000000002 -176.638 61.14300000000002 -179.366 58.279000000000025 C -182.5 54.98800000000003 -184.43 50.45800000000003 -184.43 45.450000000000024 C -184.43 36.12500000000003 -177.725 27.470000000000024 -169.09 26.444000000000024 L -135.598 26.444000000000024 C -132.80700000000002 26.444000000000024 -130.26700000000002 24.998000000000022 -128.43300000000002 22.676000000000023 C -126.59800000000003 20.325000000000024 -125.46900000000002 17.105000000000025 -125.46900000000002 13.558000000000023 C -125.46900000000002 6.420000000000023 -130.00000000000003 0.6430000000000238 -135.598 0.6430000000000238 L -169.03000000000003 0.6430000000000238 C -169.03600000000003 0.7140000000000237 -169.04300000000003 0.7930000000000238 -169.03300000000002 0.6430000000000238 C -172.68 0.12200000000002376 -175.911 -2.462999999999976 -178.39300000000003 -5.069999999999976 C -181.37500000000003 -8.196999999999976 -183.22700000000003 -12.507999999999976 -183.22700000000003 -17.279999999999976 C -183.22700000000003 -26.847999999999978 -174.61000000000004 -34.86299999999997 -165.51400000000004 -34.86299999999997 L -165.07600000000005 -34.98099999999997 L -114.88800000000005 -34.98099999999997 C -112.09900000000005 -34.98099999999997 -109.55600000000005 -36.427999999999976 -107.72200000000005 -38.74999999999997 C -105.88700000000006 -41.09399999999997 -104.76100000000005 -44.327999999999975 -104.76100000000005 -47.89099999999997 C -104.76100000000005 -55.01399999999997 -109.28900000000006 -60.78299999999997 -114.88800000000005 -60.78299999999997 L -142.59000000000006 -60.78299999999997 C -150.27000000000007 -60.78299999999997 -155.37000000000006 -69.10399999999997 -152.20100000000005 -76.46299999999997 C -152.11500000000004 -76.66399999999996 -152.02000000000004 -76.85799999999996 -151.93300000000005 -77.05899999999997 C -133.54100000000005 -89.68799999999997 -111.28200000000004 -97.09399999999997 -87.28700000000005 -97.09399999999997 C -24.132000000000048 -97.09399999999997 27.064999999999955 -45.895999999999965 27.064999999999955 17.258000000000038 C 27.064999999999955 78.14500000000004 -20.527000000000044 127.90000000000003 -80.53700000000005 131.39600000000004" stroke-linecap="round" />
</g>
</g>
</g>
<g transform="matrix(1.9211538461538462 0 0 1.9211538461538462 820.375676102115 514.6627887187977)" id="text-logo"  >
<g style=""  paint-order="stroke"   >
		<g transform="matrix(1 0 0 1 5.684342e-14 0)" id="text-logo-path-0"  >
<path style="stroke: none; stroke-width: 0; stroke-dasharray: none; stroke-linecap: butt; stroke-dashoffset: 0; stroke-linejoin: miter; stroke-miterlimit: 4; fill: rgb(47,185,163); fill-rule: nonzero; opacity: 1;"  paint-order="stroke"  transform=" translate(-187.225, 8.61)" d="M 9.89 -18.92 L 0.64 -18.92 L 0.64 -23.11 L 23.32 -23.11 L 23.32 -18.92 L 14.08 -18.92 L 14.08 0 L 9.89 0 L 9.89 -18.92 Z M 36.95 0 L 32.76 0 L 32.76 -17.42 L 36.95 -17.42 L 36.95 0 Z M 36.95 -21 L 32.76 -21 L 32.76 -24.78 L 36.95 -24.78 L 36.95 -21 Z M 47.13 -12.38 L 47.13 -12.38 Q 47.13 -13.78 47.63 -14.74 Q 48.13 -15.69 48.88 -16.29 Q 49.64 -16.89 50.53 -17.15 Q 51.41 -17.42 52.19 -17.42 L 52.19 -17.42 L 62.48 -17.42 L 62.48 -13.23 L 52.22 -13.23 Q 51.9 -13.23 51.71 -13.16 Q 51.53 -13.08 51.44 -12.96 Q 51.35 -12.84 51.33 -12.71 Q 51.32 -12.57 51.32 -12.44 L 51.32 -12.44 Q 51.33 -12.18 51.41 -12.04 Q 51.49 -11.89 51.61 -11.83 Q 51.73 -11.76 51.89 -11.75 Q 52.04 -11.75 52.19 -11.75 L 52.19 -11.75 L 58.68 -11.75 Q 60.29 -11.75 61.42 -11.17 Q 62.55 -10.59 63.24 -9.71 Q 63.93 -8.83 64.25 -7.8 Q 64.56 -6.77 64.56 -5.88 L 64.56 -5.88 Q 64.56 -4.8 64.29 -3.94 Q 64.01 -3.08 63.56 -2.43 Q 63.11 -1.77 62.51 -1.31 Q 61.92 -0.85 61.27 -0.56 Q 60.61 -0.27 59.94 -0.14 Q 59.28 0 58.68 0 L 58.68 0 L 47.34 0 L 47.34 -4.19 L 58.65 -4.19 Q 59.5 -4.19 59.94 -4.62 Q 60.37 -5.06 60.37 -5.88 L 60.37 -5.88 Q 60.29 -7.56 58.68 -7.56 L 58.68 -7.56 L 52.19 -7.56 Q 50.8 -7.56 49.83 -8.04 Q 48.87 -8.52 48.26 -9.25 Q 47.66 -9.97 47.39 -10.81 Q 47.13 -11.65 47.13 -12.38 Z M 78.51 0 L 74.32 0 L 74.32 -24.78 L 78.51 -24.78 L 78.51 0 Z M 87.76 -13.23 L 80.2 -13.23 L 80.2 -17.42 L 87.76 -17.42 Q 88.36 -17.42 89.02 -17.28 Q 89.68 -17.14 90.33 -16.85 Q 90.98 -16.56 91.58 -16.11 Q 92.18 -15.65 92.63 -14.99 Q 93.08 -14.34 93.35 -13.49 Q 93.63 -12.63 93.63 -11.55 L 93.63 -11.55 L 93.63 0 L 89.44 0 L 89.44 -11.55 Q 89.44 -12.38 89.02 -12.8 Q 88.6 -13.23 87.76 -13.23 L 87.76 -13.23 Z M 104.13 -5.88 L 104.13 -5.88 L 104.13 -24.78 L 108.32 -24.78 L 108.32 -5.88 Q 108.32 -5.11 108.8 -4.65 Q 109.29 -4.19 110.01 -4.19 L 110.01 -4.19 L 117.57 -4.19 Q 118.36 -4.19 118.8 -4.66 Q 119.24 -5.12 119.24 -5.88 L 119.24 -5.88 L 119.24 -11.55 Q 119.24 -12.34 118.78 -12.79 Q 118.31 -13.23 117.57 -13.23 L 117.57 -13.23 L 110.01 -13.23 L 110.01 -17.42 L 117.57 -17.42 Q 118.16 -17.42 118.83 -17.28 Q 119.49 -17.14 120.14 -16.85 Q 120.79 -16.56 121.39 -16.11 Q 121.98 -15.65 122.43 -14.99 Q 122.89 -14.34 123.16 -13.49 Q 123.43 -12.63 123.43 -11.55 L 123.43 -11.55 L 123.43 -5.88 Q 123.43 -5.29 123.3 -4.62 Q 123.16 -3.96 122.87 -3.31 Q 122.58 -2.66 122.12 -2.06 Q 121.66 -1.47 121.01 -1.01 Q 120.36 -0.55 119.5 -0.27 Q 118.65 0 117.57 0 L 117.57 0 L 110.01 0 Q 109.41 0 108.75 -0.14 Q 108.09 -0.27 107.44 -0.56 Q 106.79 -0.85 106.19 -1.31 Q 105.6 -1.77 105.14 -2.43 Q 104.68 -3.08 104.4 -3.94 Q 104.13 -4.8 104.13 -5.88 Z M 138.03 0 L 133.84 0 L 133.84 -17.42 L 138.03 -17.42 L 138.03 0 Z M 138.03 -21 L 133.84 -21 L 133.84 -24.78 L 138.03 -24.78 L 138.03 -21 Z M 153.09 -13.23 L 147.65 -13.23 L 147.65 -17.42 L 153.09 -17.42 L 153.09 -23.11 L 157.33 -23.11 L 157.33 -17.42 L 164.65 -17.42 L 164.65 -13.23 L 157.33 -13.23 L 157.33 0 L 153.09 0 L 153.09 -13.23 Z M 173.75 -5.77 L 173.75 -5.77 L 173.75 -11.65 Q 173.75 -12.52 174.05 -13.53 Q 174.36 -14.53 175.04 -15.4 Q 175.73 -16.26 176.83 -16.84 Q 177.94 -17.42 179.52 -17.42 L 179.52 -17.42 L 187.07 -17.42 Q 187.94 -17.42 188.95 -17.11 Q 189.96 -16.81 190.82 -16.12 Q 191.68 -15.44 192.26 -14.33 Q 192.84 -13.23 192.84 -11.65 L 192.84 -11.65 Q 192.84 -10.78 192.54 -9.77 Q 192.23 -8.77 191.54 -7.9 Q 190.86 -7.04 189.76 -6.46 Q 188.65 -5.88 187.07 -5.88 L 187.07 -5.88 L 179.52 -5.88 L 179.52 -9.86 L 187.07 -9.86 Q 187.93 -9.86 188.39 -10.39 Q 188.86 -10.91 188.86 -11.68 L 188.86 -11.68 Q 188.86 -12.5 188.34 -12.97 Q 187.81 -13.44 187.07 -13.44 L 187.07 -13.44 L 179.52 -13.44 Q 178.66 -13.44 178.19 -12.91 Q 177.73 -12.39 177.73 -11.62 L 177.73 -11.62 L 177.73 -5.77 Q 177.73 -4.93 178.25 -4.46 Q 178.77 -4 179.55 -4 L 179.55 -4 L 187.07 -4 L 187.07 0 L 179.52 0 Q 178.65 0 177.64 -0.31 Q 176.63 -0.61 175.77 -1.3 Q 174.91 -1.98 174.33 -3.09 Q 173.75 -4.19 173.75 -5.77 Z M 220.36 -2.11 L 220.36 -2.11 L 220.36 -21 Q 220.36 -21.43 220.52 -21.82 Q 220.68 -22.2 220.96 -22.49 Q 221.24 -22.78 221.63 -22.95 Q 222.02 -23.11 222.47 -23.11 L 222.47 -23.11 L 233.78 -23.11 Q 235.86 -23.11 237.63 -22.38 Q 239.4 -21.66 240.69 -20.38 Q 241.98 -19.09 242.72 -17.31 Q 243.45 -15.53 243.45 -13.44 L 243.45 -13.44 L 243.45 -9.67 Q 243.45 -7.56 242.72 -5.78 Q 241.98 -4.01 240.69 -2.73 Q 239.4 -1.45 237.63 -0.73 Q 235.86 0 233.78 0 L 233.78 0 L 222.47 0 Q 222.02 0 221.63 -0.16 Q 221.24 -0.32 220.96 -0.6 Q 220.68 -0.89 220.52 -1.27 Q 220.36 -1.66 220.36 -2.11 Z M 224.55 -18.92 L 224.55 -4.19 L 233.78 -4.19 Q 235.01 -4.19 236.01 -4.58 Q 237.02 -4.98 237.74 -5.7 Q 238.47 -6.41 238.86 -7.42 Q 239.26 -8.43 239.26 -9.67 L 239.26 -9.67 L 239.26 -13.44 Q 239.26 -14.66 238.86 -15.68 Q 238.47 -16.69 237.74 -17.41 Q 237.02 -18.13 236.01 -18.52 Q 235.01 -18.92 233.78 -18.92 L 233.78 -18.92 L 224.55 -18.92 Z M 258.11 0 L 253.92 0 L 253.92 -17.42 L 258.11 -17.42 L 258.11 0 Z M 258.11 -21 L 253.92 -21 L 253.92 -24.78 L 258.11 -24.78 L 258.11 -21 Z M 268.53 -5.88 L 268.53 -5.88 L 268.53 -11.55 Q 268.53 -12.15 268.67 -12.81 Q 268.81 -13.47 269.1 -14.12 Q 269.39 -14.78 269.84 -15.37 Q 270.3 -15.97 270.96 -16.42 Q 271.61 -16.87 272.46 -17.14 Q 273.32 -17.42 274.4 -17.42 L 274.4 -17.42 L 281.95 -17.42 Q 282.55 -17.42 283.22 -17.28 Q 283.89 -17.14 284.54 -16.85 Q 285.19 -16.56 285.79 -16.11 Q 286.39 -15.65 286.84 -14.99 Q 287.29 -14.34 287.56 -13.49 Q 287.84 -12.63 287.84 -11.55 L 287.84 -11.55 L 287.84 1.68 Q 287.84 2.76 287.56 3.62 Q 287.29 4.48 286.84 5.13 Q 286.39 5.78 285.79 6.24 Q 285.19 6.7 284.54 6.99 Q 283.89 7.28 283.22 7.42 Q 282.55 7.56 281.95 7.56 L 281.95 7.56 L 274.4 7.56 L 274.4 3.37 L 281.95 3.37 Q 282.81 3.37 283.23 2.93 Q 283.65 2.5 283.65 1.68 L 283.65 1.68 L 283.65 -11.55 Q 283.65 -12.38 283.23 -12.8 Q 282.81 -13.23 281.95 -13.23 L 281.95 -13.23 L 274.4 -13.23 Q 273.62 -13.23 273.17 -12.75 Q 272.72 -12.28 272.72 -11.55 L 272.72 -11.55 L 272.72 -5.88 Q 272.72 -5.06 273.16 -4.62 Q 273.59 -4.19 274.43 -4.19 L 274.43 -4.19 L 281.95 -4.19 L 281.95 0 L 274.4 0 Q 273.8 0 273.14 -0.14 Q 272.48 -0.27 271.83 -0.56 Q 271.17 -0.85 270.58 -1.31 Q 269.98 -1.77 269.53 -2.43 Q 269.08 -3.08 268.81 -3.94 Q 268.53 -4.8 268.53 -5.88 Z M 302.69 0 L 298.5 0 L 298.5 -17.42 L 302.69 -17.42 L 302.69 0 Z M 302.69 -21 L 298.5 -21 L 298.5 -24.78 L 302.69 -24.78 L 302.69 -21 Z M 317.75 -13.23 L 312.31 -13.23 L 312.31 -17.42 L 317.75 -17.42 L 317.75 -23.11 L 321.99 -23.11 L 321.99 -17.42 L 329.31 -17.42 L 329.31 -13.23 L 321.99 -13.23 L 321.99 0 L 317.75 0 L 317.75 -13.23 Z M 336.72 -5.77 L 336.72 -5.77 Q 336.72 -6.64 337.02 -7.65 Q 337.33 -8.67 338.01 -9.53 Q 338.7 -10.39 339.8 -10.97 Q 340.9 -11.55 342.48 -11.55 L 342.48 -11.55 L 350.04 -11.55 L 350.04 -7.56 L 342.48 -7.56 Q 341.63 -7.56 341.16 -7.03 Q 340.7 -6.51 340.7 -5.74 L 340.7 -5.74 Q 340.7 -4.91 341.24 -4.46 Q 341.77 -4 342.52 -4 L 342.52 -4 L 350.04 -4 Q 350.9 -4 351.36 -4.51 Q 351.83 -5.03 351.83 -5.8 L 351.83 -5.8 L 351.83 -11.65 Q 351.83 -12.47 351.32 -12.96 Q 350.81 -13.44 350.04 -13.44 L 350.04 -13.44 L 340.84 -13.44 L 340.84 -17.42 L 350.04 -17.42 Q 350.91 -17.42 351.92 -17.11 Q 352.93 -16.81 353.79 -16.12 Q 354.65 -15.44 355.23 -14.33 Q 355.81 -13.23 355.81 -11.65 L 355.81 -11.65 L 355.81 -5.77 Q 355.81 -4.9 355.5 -3.89 Q 355.2 -2.88 354.51 -2.02 Q 353.83 -1.16 352.72 -0.58 Q 351.62 0 350.04 0 L 350.04 0 L 342.48 0 Q 341.61 0 340.61 -0.31 Q 339.6 -0.61 338.74 -1.3 Q 337.88 -1.98 337.3 -3.09 Q 336.72 -4.19 336.72 -5.77 Z M 366.06 -5.88 L 366.06 -5.88 L 366.06 -24.78 L 370.24 -24.78 L 370.24 -5.88 Q 370.24 -5.11 370.73 -4.65 Q 371.21 -4.19 371.94 -4.19 L 371.94 -4.19 L 373.81 -4.19 L 373.81 0 L 371.94 0 Q 371.03 0 370.01 -0.31 Q 368.99 -0.61 368.1 -1.31 Q 367.22 -2.01 366.64 -3.13 Q 366.06 -4.25 366.06 -5.88 Z" stroke-linecap="round" />
</g>
</g>
</g>
<g transform="matrix(1.9211538461538462 0 0 1.9211538461538462 820.097014988083 567.7245732506871)" id="tagline-2091dfb2-845b-4d80-a4bf-aac084cacf70-logo"  >
<g style=""  paint-order="stroke"   >
		<g transform="matrix(1 0 0 1 -5.684342e-14 0)" id="tagline-2091dfb2-845b-4d80-a4bf-aac084cacf70-logo-path-0"  >
<path style="stroke: none; stroke-width: 0; stroke-dasharray: none; stroke-linecap: butt; stroke-dashoffset: 0; stroke-linejoin: miter; stroke-miterlimit: 4; fill: rgb(25,106,93); fill-rule: nonzero; opacity: 1;"  paint-order="stroke"  transform=" translate(-179.09000000000003, 6)" d="M 10.15 -8.78 Q 9.47 -10.47 8.13 -11.23 Q 6.8 -12 4.83 -12 L 4.83 -12 L 1.33 -12 L 1.33 0 L 4.23 0 Q 5.3 0 5.91 -0.05 Q 6.52 -0.1 7.1 -0.29 Q 7.68 -0.48 8.3 -0.92 L 8.3 -0.92 Q 9.42 -1.62 10.04 -3.01 Q 10.67 -4.4 10.67 -6 L 10.67 -6 Q 10.67 -7.52 10.15 -8.78 L 10.15 -8.78 Z M 7.2 -2.45 Q 6.7 -2.05 6.13 -1.91 Q 5.57 -1.77 4.83 -1.77 L 4.83 -1.77 L 3.32 -1.77 L 3.32 -10.27 L 4.83 -10.27 Q 6.33 -10.27 7.2 -9.55 L 7.2 -9.55 Q 7.9 -9.02 8.24 -8.08 Q 8.58 -7.15 8.55 -6 L 8.55 -6 Q 8.58 -4.87 8.25 -3.93 Q 7.92 -3 7.2 -2.45 L 7.2 -2.45 Z M 27.66 -12 L 27.66 -10 L 22.49 -10 L 22.49 -7 L 26.66 -7 L 26.66 -5 L 22.49 -5 L 22.49 -2 L 27.66 -2 L 27.66 0.02 L 21.49 0.02 L 21.49 0 L 20.49 0 L 20.49 -12 L 27.66 -12 Z M 45.03 -6.23 Q 44.65 -6.45 44.31 -6.58 Q 43.96 -6.7 43.4 -6.87 L 43.4 -6.87 Q 43.31 -6.88 42.93 -7 L 42.93 -7 L 42.23 -7.22 Q 41.43 -7.45 41.1 -7.58 L 41.1 -7.58 Q 40.68 -7.72 40.39 -7.92 Q 40.1 -8.12 39.98 -8.32 L 39.98 -8.32 Q 39.85 -8.62 39.85 -8.88 L 39.85 -8.88 Q 39.85 -9.27 40.09 -9.59 Q 40.33 -9.92 40.76 -10.1 L 40.76 -10.1 Q 41.28 -10.33 42 -10.33 L 42 -10.33 Q 42.46 -10.33 42.91 -10.22 Q 43.36 -10.1 43.68 -9.87 L 43.68 -9.87 Q 44.1 -9.6 44.41 -9.14 Q 44.73 -8.68 44.91 -8.13 L 44.91 -8.13 L 46.81 -8.65 Q 46.56 -9.53 46.01 -10.3 Q 45.46 -11.07 44.75 -11.5 L 44.75 -11.5 Q 44.2 -11.88 43.48 -12.07 Q 42.76 -12.25 41.98 -12.25 L 41.98 -12.25 Q 40.95 -12.25 40.03 -11.92 L 40.03 -11.92 Q 39.4 -11.68 38.87 -11.2 Q 38.35 -10.72 38.08 -10.07 L 38.08 -10.07 Q 37.83 -9.62 37.83 -8.95 L 37.83 -8.95 Q 37.83 -8.5 37.96 -8.04 Q 38.08 -7.58 38.31 -7.23 L 38.31 -7.23 Q 38.65 -6.73 39.16 -6.4 Q 39.66 -6.07 40.43 -5.78 L 40.43 -5.78 Q 40.73 -5.68 41.2 -5.54 Q 41.66 -5.4 42 -5.3 L 42 -5.3 Q 42.83 -5.07 43.33 -4.92 L 43.33 -4.92 Q 43.98 -4.68 44.38 -4.25 Q 44.78 -3.82 44.78 -3.3 L 44.78 -3.3 Q 44.78 -2.92 44.55 -2.58 L 44.55 -2.58 Q 44.3 -2.15 43.68 -1.92 Q 43.06 -1.68 42.33 -1.68 L 42.33 -1.68 Q 41.8 -1.68 41.31 -1.8 Q 40.81 -1.92 40.5 -2.13 L 40.5 -2.13 Q 39.95 -2.47 39.65 -3.17 Q 39.35 -3.88 39.28 -4.8 L 39.28 -4.8 L 37.23 -4.25 Q 37.45 -3 38 -2.02 Q 38.55 -1.03 39.45 -0.48 L 39.45 -0.48 Q 40 -0.12 40.76 0.06 Q 41.51 0.23 42.35 0.23 L 42.35 0.23 Q 43.26 0.23 44.08 0.03 L 44.08 0.03 Q 45.18 -0.25 45.91 -0.97 Q 46.63 -1.7 46.81 -2.75 L 46.81 -2.75 Q 46.86 -3.08 46.86 -3.37 L 46.86 -3.37 Q 46.86 -4.25 46.4 -4.95 Q 45.93 -5.65 45.03 -6.23 L 45.03 -6.23 Z M 59.11 -12 L 57.11 -12 L 57.11 0.02 L 59.11 0.02 L 59.11 -12 Z M 74.65 -5.75 L 79.75 -5.75 Q 79.7 -3 78.28 -1.4 L 78.28 -1.4 Q 77.53 -0.58 76.55 -0.16 Q 75.56 0.27 74.51 0.27 L 74.51 0.27 Q 73.45 0.27 72.46 -0.16 Q 71.48 -0.58 70.73 -1.4 L 70.73 -1.4 Q 70.01 -2.2 69.63 -3.42 Q 69.25 -4.63 69.25 -5.97 L 69.25 -5.97 Q 69.25 -7.32 69.64 -8.53 Q 70.03 -9.75 70.78 -10.57 L 70.78 -10.57 Q 71.55 -11.42 72.51 -11.84 Q 73.48 -12.27 74.5 -12.27 L 74.5 -12.27 Q 75.9 -12.27 77.14 -11.49 Q 78.38 -10.72 79.08 -9.3 L 79.08 -9.3 L 77.23 -8.45 Q 76.86 -9.37 76.1 -9.87 Q 75.35 -10.37 74.48 -10.37 L 74.48 -10.37 Q 73.83 -10.37 73.23 -10.07 Q 72.63 -9.78 72.21 -9.23 L 72.21 -9.23 Q 71.8 -8.68 71.57 -7.82 Q 71.35 -6.95 71.35 -5.98 L 71.35 -5.98 Q 71.35 -5.03 71.56 -4.17 Q 71.78 -3.32 72.2 -2.77 L 72.2 -2.77 Q 72.63 -2.2 73.21 -1.91 Q 73.8 -1.62 74.43 -1.62 L 74.43 -1.62 Q 75.41 -1.62 76.25 -2.26 Q 77.08 -2.9 77.4 -4 L 77.4 -4 L 74.65 -4 L 74.65 -5.75 Z M 96.57 -3.42 L 96.57 -12 L 98.57 -12 L 98.57 0 L 96.3 0 L 91.59 -8.58 L 91.59 0 L 89.57 0 L 89.57 -12 L 91.89 -12 L 96.57 -3.42 Z M 116.23 -12 L 116.23 -10 L 111.06 -10 L 111.06 -7 L 115.23 -7 L 115.23 -5 L 111.06 -5 L 111.06 -2 L 116.23 -2 L 116.23 0.02 L 110.06 0.02 L 110.06 0 L 109.06 0 L 109.06 -12 L 116.23 -12 Z M 135.2 -8.78 Q 134.52 -10.47 133.18 -11.23 Q 131.85 -12 129.88 -12 L 129.88 -12 L 126.38 -12 L 126.38 0 L 129.28 0 Q 130.35 0 130.96 -0.05 Q 131.57 -0.1 132.15 -0.29 Q 132.73 -0.48 133.35 -0.92 L 133.35 -0.92 Q 134.47 -1.62 135.09 -3.01 Q 135.72 -4.4 135.72 -6 L 135.72 -6 Q 135.72 -7.52 135.2 -8.78 L 135.2 -8.78 Z M 132.25 -2.45 Q 131.75 -2.05 131.18 -1.91 Q 130.62 -1.77 129.88 -1.77 L 129.88 -1.77 L 128.37 -1.77 L 128.37 -10.27 L 129.88 -10.27 Q 131.38 -10.27 132.25 -9.55 L 132.25 -9.55 Q 132.95 -9.02 133.29 -8.08 Q 133.63 -7.15 133.6 -6 L 133.6 -6 Q 133.63 -4.87 133.3 -3.93 Q 132.97 -3 132.25 -2.45 L 132.25 -2.45 Z M 156.2 -12 L 165.2 -12 L 165.2 -9.98 L 161.7 -9.98 L 161.7 0 L 159.7 0 L 159.7 -9.98 L 156.2 -9.98 L 156.2 -12 Z M 182.89 -1.4 Q 183.62 -2.22 184.01 -3.42 Q 184.39 -4.63 184.39 -5.97 L 184.39 -5.97 Q 184.39 -7.32 184 -8.53 Q 183.61 -9.75 182.86 -10.58 L 182.86 -10.58 Q 182.11 -11.4 181.14 -11.83 Q 180.17 -12.27 179.12 -12.27 L 179.12 -12.27 Q 178.09 -12.27 177.12 -11.84 Q 176.16 -11.42 175.41 -10.58 L 175.41 -10.58 Q 174.64 -9.75 174.25 -8.53 Q 173.86 -7.32 173.86 -5.98 L 173.86 -5.98 Q 173.86 -4.65 174.25 -3.43 Q 174.64 -2.22 175.36 -1.4 L 175.36 -1.4 Q 176.07 -0.58 177.07 -0.16 Q 178.06 0.27 179.12 0.27 L 179.12 0.27 Q 180.19 0.27 181.17 -0.16 Q 182.16 -0.58 182.89 -1.4 L 182.89 -1.4 Z M 176.82 -2.77 Q 176.41 -3.33 176.18 -4.19 Q 175.96 -5.05 175.96 -6 L 175.96 -6 Q 175.96 -6.95 176.18 -7.81 Q 176.41 -8.67 176.82 -9.23 L 176.82 -9.23 Q 177.24 -9.78 177.85 -10.07 Q 178.46 -10.37 179.11 -10.37 L 179.11 -10.37 Q 179.77 -10.37 180.38 -10.07 Q 180.99 -9.78 181.42 -9.22 L 181.42 -9.22 Q 181.84 -8.67 182.07 -7.81 Q 182.29 -6.95 182.29 -6 L 182.29 -6 Q 182.29 -5.07 182.07 -4.21 Q 181.86 -3.35 181.44 -2.78 L 181.44 -2.78 Q 181.01 -2.22 180.4 -1.93 Q 179.79 -1.63 179.12 -1.63 L 179.12 -1.63 Q 178.46 -1.63 177.85 -1.93 Q 177.24 -2.22 176.82 -2.77 L 176.82 -2.77 Z M 214.12 -3.57 Q 214.1 -2.57 213.6 -1.75 Q 213.09 -0.93 212.25 -0.47 Q 211.4 0 210.39 0 L 210.39 0 L 206.04 0 L 206.04 -12 L 210.14 -12 Q 210.97 -12 211.68 -11.66 Q 212.39 -11.32 212.89 -10.7 L 212.89 -10.7 Q 213.59 -9.85 213.59 -8.73 L 213.59 -8.73 Q 213.59 -8.1 213.35 -7.49 Q 213.1 -6.88 212.64 -6.43 L 212.64 -6.43 Q 213.32 -5.97 213.7 -5.2 Q 214.09 -4.43 214.12 -3.57 L 214.12 -3.57 Z M 209.54 -10.25 L 208.02 -10.25 L 208.02 -7.15 L 209.92 -7.15 Q 210.07 -7.15 210.26 -7.18 Q 210.45 -7.22 210.57 -7.27 L 210.57 -7.27 Q 211 -7.45 211.24 -7.86 Q 211.47 -8.27 211.47 -8.7 L 211.47 -8.7 Q 211.47 -9.15 211.24 -9.55 Q 211 -9.95 210.57 -10.13 L 210.57 -10.13 Q 210.39 -10.22 210.21 -10.23 Q 210.04 -10.25 209.84 -10.25 Q 209.64 -10.25 209.54 -10.25 L 209.54 -10.25 Z M 210.92 -1.88 Q 211.45 -2.12 211.73 -2.58 Q 212 -3.05 212 -3.58 L 212 -3.58 Q 212 -4.13 211.73 -4.59 Q 211.45 -5.05 210.92 -5.27 L 210.92 -5.27 Q 210.69 -5.35 210.41 -5.38 Q 210.14 -5.4 209.54 -5.4 L 209.54 -5.4 L 208.02 -5.4 L 208.02 -1.75 L 209.54 -1.75 Q 210.1 -1.75 210.42 -1.77 Q 210.74 -1.8 210.92 -1.88 L 210.92 -1.88 Z M 231.11 -12 L 231.11 -10 L 225.95 -10 L 225.95 -7 L 230.11 -7 L 230.11 -5 L 225.95 -5 L 225.95 -2 L 231.11 -2 L 231.11 0.02 L 224.95 0.02 L 224.95 0 L 223.95 0 L 223.95 -12 L 231.11 -12 Z M 260.51 -4.2 Q 260.34 -3.4 260.03 -2.88 L 260.03 -2.88 Q 259.66 -2.2 259.01 -1.85 Q 258.36 -1.5 257.63 -1.5 L 257.63 -1.5 Q 256.89 -1.5 256.24 -1.86 Q 255.59 -2.22 255.21 -2.88 L 255.21 -2.88 Q 254.88 -3.43 254.71 -4.26 Q 254.54 -5.08 254.54 -5.98 L 254.54 -5.98 Q 254.54 -6.92 254.71 -7.74 Q 254.88 -8.57 255.21 -9.12 L 255.21 -9.12 Q 255.59 -9.78 256.24 -10.14 Q 256.89 -10.5 257.63 -10.5 L 257.63 -10.5 Q 258.36 -10.5 259 -10.14 Q 259.64 -9.78 260.03 -9.12 L 260.03 -9.12 Q 260.36 -8.55 260.53 -7.72 L 260.53 -7.72 L 262.56 -8.08 L 262.54 -8.12 Q 262.26 -9.32 261.57 -10.28 Q 260.88 -11.23 259.88 -11.72 L 259.88 -11.72 Q 258.88 -12.25 257.63 -12.25 L 257.63 -12.25 Q 256.38 -12.25 255.36 -11.72 L 255.36 -11.72 Q 253.96 -11.03 253.19 -9.46 Q 252.43 -7.88 252.43 -6.02 L 252.43 -6.02 Q 252.43 -4.15 253.19 -2.57 Q 253.96 -0.98 255.36 -0.28 L 255.36 -0.28 Q 256.38 0.25 257.63 0.25 L 257.63 0.25 Q 258.88 0.25 259.88 -0.28 L 259.88 -0.28 Q 260.83 -0.75 261.48 -1.6 Q 262.13 -2.45 262.48 -3.6 L 262.48 -3.6 L 260.51 -4.2 Z M 279.38 -7 L 279.38 -12 L 281.38 -12 L 281.38 0 L 279.38 0 L 279.38 -5 L 274.38 -5 L 274.38 0 L 272.38 0 L 272.38 -12 L 274.38 -12 L 274.38 -7 L 279.38 -7 Z M 300.24 -1.4 Q 300.97 -2.22 301.36 -3.42 Q 301.74 -4.63 301.74 -5.97 L 301.74 -5.97 Q 301.74 -7.32 301.35 -8.53 Q 300.96 -9.75 300.21 -10.58 L 300.21 -10.58 Q 299.46 -11.4 298.49 -11.83 Q 297.52 -12.27 296.47 -12.27 L 296.47 -12.27 Q 295.44 -12.27 294.47 -11.84 Q 293.51 -11.42 292.76 -10.58 L 292.76 -10.58 Q 291.99 -9.75 291.6 -8.53 Q 291.21 -7.32 291.21 -5.98 L 291.21 -5.98 Q 291.21 -4.65 291.6 -3.43 Q 291.99 -2.22 292.71 -1.4 L 292.71 -1.4 Q 293.42 -0.58 294.42 -0.16 Q 295.41 0.27 296.47 0.27 L 296.47 0.27 Q 297.54 0.27 298.52 -0.16 Q 299.51 -0.58 300.24 -1.4 L 300.24 -1.4 Z M 294.17 -2.77 Q 293.76 -3.33 293.53 -4.19 Q 293.31 -5.05 293.31 -6 L 293.31 -6 Q 293.31 -6.95 293.53 -7.81 Q 293.76 -8.67 294.17 -9.23 L 294.17 -9.23 Q 294.59 -9.78 295.2 -10.07 Q 295.81 -10.37 296.46 -10.37 L 296.46 -10.37 Q 297.12 -10.37 297.73 -10.07 Q 298.34 -9.78 298.77 -9.22 L 298.77 -9.22 Q 299.19 -8.67 299.42 -7.81 Q 299.64 -6.95 299.64 -6 L 299.64 -6 Q 299.64 -5.07 299.42 -4.21 Q 299.21 -3.35 298.79 -2.78 L 298.79 -2.78 Q 298.36 -2.22 297.75 -1.93 Q 297.14 -1.63 296.47 -1.63 L 296.47 -1.63 Q 295.81 -1.63 295.2 -1.93 Q 294.59 -2.22 294.17 -2.77 L 294.17 -2.77 Z M 318.78 -6.23 Q 318.4 -6.45 318.06 -6.58 Q 317.72 -6.7 317.15 -6.87 L 317.15 -6.87 Q 317.07 -6.88 316.68 -7 L 316.68 -7 L 315.98 -7.22 Q 315.18 -7.45 314.85 -7.58 L 314.85 -7.58 Q 314.43 -7.72 314.14 -7.92 Q 313.85 -8.12 313.73 -8.32 L 313.73 -8.32 Q 313.6 -8.62 313.6 -8.88 L 313.6 -8.88 Q 313.6 -9.27 313.84 -9.59 Q 314.08 -9.92 314.52 -10.1 L 314.52 -10.1 Q 315.03 -10.33 315.75 -10.33 L 315.75 -10.33 Q 316.22 -10.33 316.67 -10.22 Q 317.12 -10.1 317.43 -9.87 L 317.43 -9.87 Q 317.85 -9.6 318.17 -9.14 Q 318.48 -8.68 318.67 -8.13 L 318.67 -8.13 L 320.57 -8.65 Q 320.32 -9.53 319.77 -10.3 Q 319.22 -11.07 318.5 -11.5 L 318.5 -11.5 Q 317.95 -11.88 317.23 -12.07 Q 316.52 -12.25 315.73 -12.25 L 315.73 -12.25 Q 314.7 -12.25 313.78 -11.92 L 313.78 -11.92 Q 313.15 -11.68 312.62 -11.2 Q 312.1 -10.72 311.83 -10.07 L 311.83 -10.07 Q 311.58 -9.62 311.58 -8.95 L 311.58 -8.95 Q 311.58 -8.5 311.71 -8.04 Q 311.83 -7.58 312.07 -7.23 L 312.07 -7.23 Q 312.4 -6.73 312.91 -6.4 Q 313.42 -6.07 314.18 -5.78 L 314.18 -5.78 Q 314.48 -5.68 314.95 -5.54 Q 315.42 -5.4 315.75 -5.3 L 315.75 -5.3 Q 316.58 -5.07 317.08 -4.92 L 317.08 -4.92 Q 317.73 -4.68 318.13 -4.25 Q 318.53 -3.82 318.53 -3.3 L 318.53 -3.3 Q 318.53 -2.92 318.3 -2.58 L 318.3 -2.58 Q 318.05 -2.15 317.43 -1.92 Q 316.82 -1.68 316.08 -1.68 L 316.08 -1.68 Q 315.55 -1.68 315.06 -1.8 Q 314.57 -1.92 314.25 -2.13 L 314.25 -2.13 Q 313.7 -2.47 313.4 -3.17 Q 313.1 -3.88 313.03 -4.8 L 313.03 -4.8 L 310.98 -4.25 Q 311.2 -3 311.75 -2.02 Q 312.3 -1.03 313.2 -0.48 L 313.2 -0.48 Q 313.75 -0.12 314.51 0.06 Q 315.27 0.23 316.1 0.23 L 316.1 0.23 Q 317.02 0.23 317.83 0.03 L 317.83 0.03 Q 318.93 -0.25 319.66 -0.97 Q 320.38 -1.7 320.57 -2.75 L 320.57 -2.75 Q 320.62 -3.08 320.62 -3.37 L 320.62 -3.37 Q 320.62 -4.25 320.15 -4.95 Q 319.68 -5.65 318.78 -6.23 L 318.78 -6.23 Z M 337.69 -12 L 337.69 -10 L 332.52 -10 L 332.52 -7 L 336.69 -7 L 336.69 -5 L 332.52 -5 L 332.52 -2 L 337.69 -2 L 337.69 0.02 L 331.52 0.02 L 331.52 0 L 330.52 0 L 330.52 -12 L 337.69 -12 Z M 354.85 -3.42 L 354.85 -12 L 356.85 -12 L 356.85 0 L 354.58 0 L 349.86 -8.58 L 349.86 0 L 347.85 0 L 347.85 -12 L 350.16 -12 L 354.85 -3.42 Z" stroke-linecap="round" />
</g>
</g>
</g>
</svg>